<svg width="20" height="20" viewBox="0 0 20 20" fill="none" xmlns="http://www.w3.org/2000/svg">
<g clip-path="url(#clip0_1710_14967)">
<path d="M10.2014 2.21496e-09C11.0572 -3.12881e-05 11.8798 0.331463 12.4964 0.924899C13.113 1.51834 13.4757 2.32757 13.5085 3.18273L13.5108 3.30935H17.6835C17.8675 3.30995 18.0443 3.38103 18.1775 3.50799C18.3107 3.63494 18.3902 3.80811 18.3996 3.99188C18.409 4.17566 18.3477 4.35606 18.2282 4.49599C18.1087 4.63592 17.9401 4.72473 17.7571 4.74417L17.6835 4.7482H17.0555L16.0754 17.7381C16.0289 18.3532 15.7518 18.9281 15.2995 19.3475C14.8472 19.767 14.2531 20 13.6363 20H6.76662C6.14976 20 5.55568 19.767 5.10337 19.3475C4.65106 18.9281 4.37393 18.3532 4.32748 17.7381L3.34676 4.7482H2.71942C2.54132 4.74828 2.36951 4.6823 2.23726 4.56301C2.105 4.44372 2.02169 4.27962 2.00345 4.10245L2 4.02878C2 3.6564 2.28317 3.34964 2.64576 3.31338L2.71942 3.30935H6.89209C6.89209 2.43166 7.24075 1.58991 7.86137 0.969287C8.482 0.348663 9.32374 2.21496e-09 10.2014 2.21496e-09ZM15.6127 4.7482H4.79022L5.76288 17.6299C5.78203 17.8831 5.89607 18.1197 6.08218 18.2923C6.26829 18.465 6.51275 18.561 6.76662 18.5612H13.6363C13.8902 18.5611 14.1348 18.4652 14.3211 18.2925C14.5073 18.1198 14.6214 17.8832 14.6406 17.6299L15.6132 4.7482H15.6127ZM12.0719 7.76978C12.4443 7.76978 12.7511 8.05295 12.7879 8.41554L12.7914 8.48921V14.8201C12.7922 15.0051 12.7218 15.1834 12.5947 15.3178C12.4676 15.4522 12.2936 15.5325 12.1088 15.542C11.9241 15.5514 11.7428 15.4894 11.6026 15.3687C11.4624 15.248 11.3741 15.0779 11.356 14.8938L11.3525 14.8201V8.48921C11.3525 8.09209 11.6748 7.76978 12.0719 7.76978ZM8.33094 7.76978C8.70331 7.76978 9.01007 8.05295 9.04691 8.41554L9.05036 8.48921V14.8201C9.05122 15.0051 8.98078 15.1834 8.85368 15.3178C8.72657 15.4522 8.55257 15.5325 8.36782 15.542C8.18306 15.5514 8.00176 15.4894 7.86156 15.3687C7.72136 15.248 7.63305 15.0779 7.61496 14.8938L7.61151 14.8201V8.48921C7.61151 8.09209 7.93381 7.76978 8.33094 7.76978ZM10.2014 1.43885C9.72366 1.43882 9.26398 1.62161 8.9167 1.94974C8.56942 2.27786 8.36086 2.72644 8.33381 3.20345L8.33094 3.30935H12.0719C12.0719 2.81326 11.8749 2.33749 11.5241 1.98671C11.1733 1.63592 10.6975 1.43885 10.2014 1.43885Z" fill="#949290"/>
</g>
<defs>
<clipPath id="clip0_1710_14967">
<rect width="20" height="20" fill="white"/>
</clipPath>
</defs>
</svg>
