<svg width="20" height="20" viewBox="0 0 20 20" fill="none" xmlns="http://www.w3.org/2000/svg">
<path d="M17.4044 5.29413L14.6643 2.5442C14.3067 2.20708 13.8381 2.01365 13.3477 2.0007C12.8572 1.98774 12.3791 2.15617 12.0043 2.47395L3.00421 11.5065C2.68098 11.8337 2.47971 12.2625 2.43421 12.7209L2.0042 16.906C1.99073 17.053 2.00974 17.2012 2.05986 17.34C2.10999 17.4788 2.19001 17.6047 2.29421 17.7089C2.38765 17.802 2.49846 17.8755 2.6203 17.9255C2.74214 17.9754 2.87261 18.0007 3.00421 18H3.09422L7.26426 17.6186C7.72106 17.5729 8.14831 17.3709 8.47428 17.0465L17.4744 8.01395C17.8237 7.64358 18.0125 7.14933 17.9994 6.63952C17.9862 6.12971 17.7723 5.64591 17.4044 5.29413V5.29413ZM7.08426 15.6114L4.08423 15.8924L4.35423 12.8815L10.0043 7.2813L12.7043 9.99108L7.08426 15.6114ZM14.0043 8.64623L11.3243 5.95652L13.2743 3.94928L16.0044 6.68916L14.0043 8.64623Z" fill="#949290"/>
</svg>
